{
	"asset":{
		"generator":"Khronos glTF Blender I/O v4.2.57",
		"version":"2.0"
	},
	"extensionsUsed":[
		"KHR_materials_specular"
	],
	"scene":0,
	"scenes":[
		{
			"name":"Scene",
			"nodes":[
				0,
				1,
				2,
				3,
				4,
				5
			]
		}
	],
	"nodes":[
		{
			"mesh":0,
			"name":"body",
			"rotation":[
				0.70710688829422,
				0,
				0,
				0.7071066498756409
			]
		},
		{
			"mesh":1,
			"name":"bullets",
			"rotation":[
				0.70710688829422,
				0,
				0,
				0.7071066498756409
			]
		},
		{
			"mesh":2,
			"name":"default_magazine",
			"rotation":[
				0.70710688829422,
				0,
				0,
				0.7071066498756409
			]
		},
		{
			"mesh":3,
			"name":"default_sight",
			"rotation":[
				0.70710688829422,
				0,
				0,
				0.7071066498756409
			]
		},
		{
			"mesh":4,
			"name":"folded_sight",
			"rotation":[
				0.70710688829422,
				0,
				0,
				0.7071066498756409
			]
		},
		{
			"mesh":5,
			"name":"folded_sight_2",
			"rotation":[
				0.70710688829422,
				0,
				0,
				0.7071066498756409
			]
		}
	],
	"materials":[
		{
			"doubleSided":true,
			"extensions":{
				"KHR_materials_specular":{
					"specularFactor":0
				}
			},
			"name":"body",
			"normalTexture":{
				"index":0
			},
			"pbrMetallicRoughness":{
				"baseColorTexture":{
					"index":1
				},
				"metallicFactor":5.960464477539063e-08,
				"metallicRoughnessTexture":{
					"index":2
				}
			}
		},
		{
			"doubleSided":true,
			"extensions":{
				"KHR_materials_specular":{
					"specularFactor":0
				}
			},
			"name":"bullets",
			"pbrMetallicRoughness":{
				"baseColorFactor":[
					0.800000011920929,
					0.800000011920929,
					0.800000011920929,
					1
				],
				"metallicFactor":0
			}
		},
		{
			"doubleSided":true,
			"extensions":{
				"KHR_materials_specular":{
					"specularFactor":0
				}
			},
			"name":"picatinny",
			"pbrMetallicRoughness":{
				"baseColorTexture":{
					"index":3
				},
				"metallicFactor":0
			}
		}
	],
	"meshes":[
		{
			"name":"body",
			"primitives":[
				{
					"attributes":{
						"POSITION":0,
						"NORMAL":1,
						"TEXCOORD_0":2
					},
					"indices":3,
					"material":0
				}
			]
		},
		{
			"name":"bullets",
			"primitives":[
				{
					"attributes":{
						"POSITION":4,
						"NORMAL":5,
						"TEXCOORD_0":6
					},
					"indices":7,
					"material":1
				}
			]
		},
		{
			"name":"default_magazine",
			"primitives":[
				{
					"attributes":{
						"POSITION":8,
						"NORMAL":9,
						"TEXCOORD_0":10
					},
					"indices":11,
					"material":0
				}
			]
		},
		{
			"name":"default_sight",
			"primitives":[
				{
					"attributes":{
						"POSITION":12,
						"NORMAL":13,
						"TEXCOORD_0":14
					},
					"indices":15,
					"material":0
				}
			]
		},
		{
			"name":"folded_sight",
			"primitives":[
				{
					"attributes":{
						"POSITION":16,
						"NORMAL":17,
						"TEXCOORD_0":18
					},
					"indices":19,
					"material":2
				}
			]
		},
		{
			"name":"folded_sight_2",
			"primitives":[
				{
					"attributes":{
						"POSITION":20,
						"NORMAL":21,
						"TEXCOORD_0":22
					},
					"indices":23,
					"material":0
				}
			]
		}
	],
	"textures":[
		{
			"sampler":0,
			"source":0
		},
		{
			"sampler":0,
			"source":1
		},
		{
			"sampler":0,
			"source":2
		},
		{
			"sampler":0,
			"source":1
		}
	],
	"images":[
		{
			"mimeType":"image/png",
			"name":"aa12_nrm",
			"uri":"textures/aa12_nrm.png"
		},
		{
			"mimeType":"image/png",
			"name":"aa12_diff",
			"uri":"textures/aa12_diff.png"
		},
		{
			"mimeType":"image/png",
			"name":"aa12_spek",
			"uri":"textures/aa12_spek.png"
		}
	],
	"accessors":[
		{
			"bufferView":0,
			"componentType":5126,
			"count":7956,
			"max":[
				0.021361999213695526,
				0.34051498770713806,
				0.19470199942588806
			],
			"min":[
				-0.02239999920129776,
				-0.5875849723815918,
				-0.07220499962568283
			],
			"type":"VEC3"
		},
		{
			"bufferView":1,
			"componentType":5126,
			"count":7956,
			"type":"VEC3"
		},
		{
			"bufferView":2,
			"componentType":5126,
			"count":7956,
			"type":"VEC2"
		},
		{
			"bufferView":3,
			"componentType":5123,
			"count":10470,
			"type":"SCALAR"
		},
		{
			"bufferView":4,
			"componentType":5126,
			"count":444,
			"max":[
				0.009277000091969967,
				-0.054016001522541046,
				0.03826899826526642
			],
			"min":[
				-0.008728000335395336,
				-0.11035200208425522,
				0.015685999765992165
			],
			"type":"VEC3"
		},
		{
			"bufferView":5,
			"componentType":5126,
			"count":444,
			"type":"VEC3"
		},
		{
			"bufferView":6,
			"componentType":5126,
			"count":444,
			"type":"VEC2"
		},
		{
			"bufferView":7,
			"componentType":5123,
			"count":468,
			"type":"SCALAR"
		},
		{
			"bufferView":8,
			"componentType":5126,
			"count":423,
			"max":[
				0.016845999285578728,
				-0.04669199883937836,
				0.20977799594402313
			],
			"min":[
				-0.016845999285578728,
				-0.1372070014476776,
				0.019592000171542168
			],
			"type":"VEC3"
		},
		{
			"bufferView":9,
			"componentType":5126,
			"count":423,
			"type":"VEC3"
		},
		{
			"bufferView":10,
			"componentType":5126,
			"count":423,
			"type":"VEC2"
		},
		{
			"bufferView":11,
			"componentType":5123,
			"count":558,
			"type":"SCALAR"
		},
		{
			"bufferView":12,
			"componentType":5126,
			"count":3105,
			"max":[
				0.01116899959743023,
				0.08691400289535522,
				-0.033385999500751495
			],
			"min":[
				-0.011536000296473503,
				-0.4046019911766052,
				-0.1019899994134903
			],
			"type":"VEC3"
		},
		{
			"bufferView":13,
			"componentType":5126,
			"count":3105,
			"type":"VEC3"
		},
		{
			"bufferView":14,
			"componentType":5126,
			"count":3105,
			"type":"VEC2"
		},
		{
			"bufferView":15,
			"componentType":5123,
			"count":4152,
			"type":"SCALAR"
		},
		{
			"bufferView":16,
			"componentType":5126,
			"count":284,
			"max":[
				0.009337999857962132,
				0.10308799892663956,
				-0.06780999898910522
			],
			"min":[
				-0.009948999620974064,
				0.005493000149726868,
				-0.07519499957561493
			],
			"type":"VEC3"
		},
		{
			"bufferView":17,
			"componentType":5126,
			"count":284,
			"type":"VEC3"
		},
		{
			"bufferView":18,
			"componentType":5126,
			"count":284,
			"type":"VEC2"
		},
		{
			"bufferView":19,
			"componentType":5123,
			"count":438,
			"type":"SCALAR"
		},
		{
			"bufferView":20,
			"componentType":5126,
			"count":1827,
			"max":[
				0.010375999845564365,
				0.1049799993634224,
				-0.033385999500751495
			],
			"min":[
				-0.011657999828457832,
				0.0030519999563694,
				-0.06951899826526642
			],
			"type":"VEC3"
		},
		{
			"bufferView":21,
			"componentType":5126,
			"count":1827,
			"type":"VEC3"
		},
		{
			"bufferView":22,
			"componentType":5126,
			"count":1827,
			"type":"VEC2"
		},
		{
			"bufferView":23,
			"componentType":5123,
			"count":2343,
			"type":"SCALAR"
		}
	],
	"bufferViews":[
		{
			"buffer":0,
			"byteLength":95472,
			"byteOffset":0,
			"target":34962
		},
		{
			"buffer":0,
			"byteLength":95472,
			"byteOffset":95472,
			"target":34962
		},
		{
			"buffer":0,
			"byteLength":63648,
			"byteOffset":190944,
			"target":34962
		},
		{
			"buffer":0,
			"byteLength":20940,
			"byteOffset":254592,
			"target":34963
		},
		{
			"buffer":0,
			"byteLength":5328,
			"byteOffset":275532,
			"target":34962
		},
		{
			"buffer":0,
			"byteLength":5328,
			"byteOffset":280860,
			"target":34962
		},
		{
			"buffer":0,
			"byteLength":3552,
			"byteOffset":286188,
			"target":34962
		},
		{
			"buffer":0,
			"byteLength":936,
			"byteOffset":289740,
			"target":34963
		},
		{
			"buffer":0,
			"byteLength":5076,
			"byteOffset":290676,
			"target":34962
		},
		{
			"buffer":0,
			"byteLength":5076,
			"byteOffset":295752,
			"target":34962
		},
		{
			"buffer":0,
			"byteLength":3384,
			"byteOffset":300828,
			"target":34962
		},
		{
			"buffer":0,
			"byteLength":1116,
			"byteOffset":304212,
			"target":34963
		},
		{
			"buffer":0,
			"byteLength":37260,
			"byteOffset":305328,
			"target":34962
		},
		{
			"buffer":0,
			"byteLength":37260,
			"byteOffset":342588,
			"target":34962
		},
		{
			"buffer":0,
			"byteLength":24840,
			"byteOffset":379848,
			"target":34962
		},
		{
			"buffer":0,
			"byteLength":8304,
			"byteOffset":404688,
			"target":34963
		},
		{
			"buffer":0,
			"byteLength":3408,
			"byteOffset":412992,
			"target":34962
		},
		{
			"buffer":0,
			"byteLength":3408,
			"byteOffset":416400,
			"target":34962
		},
		{
			"buffer":0,
			"byteLength":2272,
			"byteOffset":419808,
			"target":34962
		},
		{
			"buffer":0,
			"byteLength":876,
			"byteOffset":422080,
			"target":34963
		},
		{
			"buffer":0,
			"byteLength":21924,
			"byteOffset":422956,
			"target":34962
		},
		{
			"buffer":0,
			"byteLength":21924,
			"byteOffset":444880,
			"target":34962
		},
		{
			"buffer":0,
			"byteLength":14616,
			"byteOffset":466804,
			"target":34962
		},
		{
			"buffer":0,
			"byteLength":4686,
			"byteOffset":481420,
			"target":34963
		}
	],
	"samplers":[
		{
			"magFilter":9729,
			"minFilter":9987
		}
	],
	"buffers":[
		{
			"byteLength":486108,
			"uri":"scene.bin"
		}
	]
}
