{
	"asset":{
		"generator":"Khronos glTF Blender I/O v4.2.57",
		"version":"2.0"
	},
	"extensionsUsed":[
		"KHR_materials_specular"
	],
	"scene":0,
	"scenes":[
		{
			"name":"Scene",
			"nodes":[
				0,
				1,
				2
			]
		}
	],
	"nodes":[
		{
			"mesh":0,
			"name":"body",
			"rotation":[
				0.7071068286895752,
				0,
				0,
				0.7071068286895752
			]
		},
		{
			"mesh":1,
			"name":"default_butt",
			"rotation":[
				0.7071068286895752,
				0,
				0,
				0.7071068286895752
			]
		},
		{
			"mesh":2,
			"name":"default_magazine",
			"rotation":[
				0.7071068286895752,
				0,
				0,
				0.7071068286895752
			]
		}
	],
	"materials":[
		{
			"doubleSided":true,
			"extensions":{
				"KHR_materials_specular":{
					"specularFactor":0
				}
			},
			"name":"body",
			"normalTexture":{
				"index":0
			},
			"pbrMetallicRoughness":{
				"baseColorTexture":{
					"index":1
				},
				"metallicFactor":0
			}
		}
	],
	"meshes":[
		{
			"name":"body",
			"primitives":[
				{
					"attributes":{
						"POSITION":0,
						"NORMAL":1,
						"TEXCOORD_0":2
					},
					"indices":3,
					"material":0
				}
			]
		},
		{
			"name":"default_butt",
			"primitives":[
				{
					"attributes":{
						"POSITION":4,
						"NORMAL":5,
						"TEXCOORD_0":6
					},
					"indices":7,
					"material":0
				}
			]
		},
		{
			"name":"default_magazine",
			"primitives":[
				{
					"attributes":{
						"POSITION":8,
						"NORMAL":9,
						"TEXCOORD_0":10
					},
					"indices":11,
					"material":0
				}
			]
		}
	],
	"textures":[
		{
			"sampler":0,
			"source":0
		},
		{
			"sampler":0,
			"source":1
		}
	],
	"images":[
		{
			"mimeType":"image/png",
			"name":"aek919_nrm",
			"uri":"textures/aek919_nrm.png"
		},
		{
			"mimeType":"image/png",
			"name":"aek919_diff",
			"uri":"textures/aek919_diff.png"
		}
	],
	"accessors":[
		{
			"bufferView":0,
			"componentType":5126,
			"count":8550,
			"max":[
				0.019164999946951866,
				0.16137699782848358,
				0.14563000202178955
			],
			"min":[
				-0.026305999606847763,
				-0.14733900129795074,
				-0.04095499962568283
			],
			"type":"VEC3"
		},
		{
			"bufferView":1,
			"componentType":5126,
			"count":8550,
			"type":"VEC3"
		},
		{
			"bufferView":2,
			"componentType":5126,
			"count":8550,
			"type":"VEC2"
		},
		{
			"bufferView":3,
			"componentType":5123,
			"count":11103,
			"type":"SCALAR"
		},
		{
			"bufferView":4,
			"componentType":5126,
			"count":562,
			"max":[
				0.0206300001591444,
				0.33099400997161865,
				0.08258099853992462
			],
			"min":[
				-0.020690999925136566,
				0.10949700325727463,
				-0.004149999935179949
			],
			"type":"VEC3"
		},
		{
			"bufferView":5,
			"componentType":5126,
			"count":562,
			"type":"VEC3"
		},
		{
			"bufferView":6,
			"componentType":5126,
			"count":562,
			"type":"VEC2"
		},
		{
			"bufferView":7,
			"componentType":5123,
			"count":720,
			"type":"SCALAR"
		},
		{
			"bufferView":8,
			"componentType":5126,
			"count":702,
			"max":[
				0.011536000296473503,
				0.0620729997754097,
				0.2022709995508194
			],
			"min":[
				-0.011536000296473503,
				0.031067000702023506,
				0.014770999550819397
			],
			"type":"VEC3"
		},
		{
			"bufferView":9,
			"componentType":5126,
			"count":702,
			"type":"VEC3"
		},
		{
			"bufferView":10,
			"componentType":5126,
			"count":702,
			"type":"VEC2"
		},
		{
			"bufferView":11,
			"componentType":5123,
			"count":1074,
			"type":"SCALAR"
		}
	],
	"bufferViews":[
		{
			"buffer":0,
			"byteLength":102600,
			"byteOffset":0,
			"target":34962
		},
		{
			"buffer":0,
			"byteLength":102600,
			"byteOffset":102600,
			"target":34962
		},
		{
			"buffer":0,
			"byteLength":68400,
			"byteOffset":205200,
			"target":34962
		},
		{
			"buffer":0,
			"byteLength":22206,
			"byteOffset":273600,
			"target":34963
		},
		{
			"buffer":0,
			"byteLength":6744,
			"byteOffset":295808,
			"target":34962
		},
		{
			"buffer":0,
			"byteLength":6744,
			"byteOffset":302552,
			"target":34962
		},
		{
			"buffer":0,
			"byteLength":4496,
			"byteOffset":309296,
			"target":34962
		},
		{
			"buffer":0,
			"byteLength":1440,
			"byteOffset":313792,
			"target":34963
		},
		{
			"buffer":0,
			"byteLength":8424,
			"byteOffset":315232,
			"target":34962
		},
		{
			"buffer":0,
			"byteLength":8424,
			"byteOffset":323656,
			"target":34962
		},
		{
			"buffer":0,
			"byteLength":5616,
			"byteOffset":332080,
			"target":34962
		},
		{
			"buffer":0,
			"byteLength":2148,
			"byteOffset":337696,
			"target":34963
		}
	],
	"samplers":[
		{
			"magFilter":9729,
			"minFilter":9987
		}
	],
	"buffers":[
		{
			"byteLength":339844,
			"uri":"scene.bin"
		}
	]
}
