{
	"asset":{
		"generator":"Khronos glTF Blender I/O v4.2.57",
		"version":"2.0"
	},
	"extensionsUsed":[
		"KHR_materials_specular"
	],
	"scene":0,
	"scenes":[
		{
			"name":"Scene",
			"nodes":[
				0,
				1,
				2,
				3,
				4
			]
		}
	],
	"nodes":[
		{
			"mesh":0,
			"name":"default_barrel",
			"rotation":[
				0.7071068286895752,
				0,
				0,
				0.7071068286895752
			]
		},
		{
			"mesh":1,
			"name":"default_butt",
			"rotation":[
				0.7071068286895752,
				0,
				0,
				0.7071068286895752
			]
		},
		{
			"mesh":2,
			"name":"default_magazine",
			"rotation":[
				0.7071068286895752,
				0,
				0,
				0.7071068286895752
			]
		},
		{
			"mesh":3,
			"name":"default_sight",
			"rotation":[
				0.7071068286895752,
				0,
				0,
				0.7071068286895752
			]
		},
		{
			"mesh":4,
			"name":"korpus",
			"rotation":[
				0.7071068286895752,
				0,
				0,
				0.7071068286895752
			]
		}
	],
	"materials":[
		{
			"doubleSided":true,
			"extensions":{
				"KHR_materials_specular":{
					"specularFactor":0
				}
			},
			"name":"korpus",
			"normalTexture":{
				"index":0
			},
			"pbrMetallicRoughness":{
				"baseColorTexture":{
					"index":1
				},
				"metallicFactor":0
			}
		}
	],
	"meshes":[
		{
			"name":"default_barrel",
			"primitives":[
				{
					"attributes":{
						"POSITION":0,
						"NORMAL":1,
						"TEXCOORD_0":2
					},
					"indices":3,
					"material":0
				}
			]
		},
		{
			"name":"default_butt",
			"primitives":[
				{
					"attributes":{
						"POSITION":4,
						"NORMAL":5,
						"TEXCOORD_0":6
					},
					"indices":7,
					"material":0
				}
			]
		},
		{
			"name":"default_magazine",
			"primitives":[
				{
					"attributes":{
						"POSITION":8,
						"NORMAL":9,
						"TEXCOORD_0":10
					},
					"indices":11,
					"material":0
				}
			]
		},
		{
			"name":"default_sight",
			"primitives":[
				{
					"attributes":{
						"POSITION":12,
						"NORMAL":13,
						"TEXCOORD_0":14
					},
					"indices":15,
					"material":0
				}
			]
		},
		{
			"name":"korpus",
			"primitives":[
				{
					"attributes":{
						"POSITION":16,
						"NORMAL":17,
						"TEXCOORD_0":18
					},
					"indices":19,
					"material":0
				}
			]
		}
	],
	"textures":[
		{
			"sampler":0,
			"source":0
		},
		{
			"sampler":0,
			"source":1
		}
	],
	"images":[
		{
			"mimeType":"image/png",
			"name":"aek-a545_body_nrm",
			"uri":"textures/aek-a545_body_nrm.png"
		},
		{
			"mimeType":"image/png",
			"name":"aek-a545_body_diff",
			"uri":"textures/aek-a545_body_diff.png"
		}
	],
	"accessors":[
		{
			"bufferView":0,
			"componentType":5126,
			"count":5408,
			"max":[
				0.012938999570906162,
				-0.47686800360679626,
				0.0251460000872612
			],
			"min":[
				-0.012938999570906162,
				-0.5748900175094604,
				-0.0007929999846965075
			],
			"type":"VEC3"
		},
		{
			"bufferView":1,
			"componentType":5126,
			"count":5408,
			"type":"VEC3"
		},
		{
			"bufferView":2,
			"componentType":5126,
			"count":5408,
			"type":"VEC2"
		},
		{
			"bufferView":3,
			"componentType":5123,
			"count":6192,
			"type":"SCALAR"
		},
		{
			"bufferView":4,
			"componentType":5126,
			"count":6014,
			"max":[
				0.021606000140309334,
				0.3390499949455261,
				0.0968020036816597
			],
			"min":[
				-0.021606000140309334,
				-0.07269299775362015,
				-0.005859000142663717
			],
			"type":"VEC3"
		},
		{
			"bufferView":5,
			"componentType":5126,
			"count":6014,
			"type":"VEC3"
		},
		{
			"bufferView":6,
			"componentType":5126,
			"count":6014,
			"type":"VEC2"
		},
		{
			"bufferView":7,
			"componentType":5123,
			"count":7212,
			"type":"SCALAR"
		},
		{
			"bufferView":8,
			"componentType":5126,
			"count":2638,
			"max":[
				0.016357000917196274,
				-0.03466799855232239,
				0.20733599364757538
			],
			"min":[
				-0.016357000917196274,
				-0.17285199463367462,
				0.009033000096678734
			],
			"type":"VEC3"
		},
		{
			"bufferView":9,
			"componentType":5126,
			"count":2638,
			"type":"VEC3"
		},
		{
			"bufferView":10,
			"componentType":5126,
			"count":2638,
			"type":"VEC2"
		},
		{
			"bufferView":11,
			"componentType":5123,
			"count":2928,
			"type":"SCALAR"
		},
		{
			"bufferView":12,
			"componentType":5126,
			"count":3764,
			"max":[
				0.013183999806642532,
				0.05700699985027313,
				-0.027222000062465668
			],
			"min":[
				-0.013183999806642532,
				0.03057900071144104,
				-0.050659000873565674
			],
			"type":"VEC3"
		},
		{
			"bufferView":13,
			"componentType":5126,
			"count":3764,
			"type":"VEC3"
		},
		{
			"bufferView":14,
			"componentType":5126,
			"count":3764,
			"type":"VEC2"
		},
		{
			"bufferView":15,
			"componentType":5123,
			"count":3828,
			"type":"SCALAR"
		},
		{
			"bufferView":16,
			"componentType":5126,
			"count":34600,
			"max":[
				0.03442399948835373,
				0.11468499898910522,
				0.15325899422168732
			],
			"min":[
				-0.030395999550819397,
				-0.5202029943466187,
				-0.04699699953198433
			],
			"type":"VEC3"
		},
		{
			"bufferView":17,
			"componentType":5126,
			"count":34600,
			"type":"VEC3"
		},
		{
			"bufferView":18,
			"componentType":5126,
			"count":34600,
			"type":"VEC2"
		},
		{
			"bufferView":19,
			"componentType":5123,
			"count":46254,
			"type":"SCALAR"
		}
	],
	"bufferViews":[
		{
			"buffer":0,
			"byteLength":64896,
			"byteOffset":0,
			"target":34962
		},
		{
			"buffer":0,
			"byteLength":64896,
			"byteOffset":64896,
			"target":34962
		},
		{
			"buffer":0,
			"byteLength":43264,
			"byteOffset":129792,
			"target":34962
		},
		{
			"buffer":0,
			"byteLength":12384,
			"byteOffset":173056,
			"target":34963
		},
		{
			"buffer":0,
			"byteLength":72168,
			"byteOffset":185440,
			"target":34962
		},
		{
			"buffer":0,
			"byteLength":72168,
			"byteOffset":257608,
			"target":34962
		},
		{
			"buffer":0,
			"byteLength":48112,
			"byteOffset":329776,
			"target":34962
		},
		{
			"buffer":0,
			"byteLength":14424,
			"byteOffset":377888,
			"target":34963
		},
		{
			"buffer":0,
			"byteLength":31656,
			"byteOffset":392312,
			"target":34962
		},
		{
			"buffer":0,
			"byteLength":31656,
			"byteOffset":423968,
			"target":34962
		},
		{
			"buffer":0,
			"byteLength":21104,
			"byteOffset":455624,
			"target":34962
		},
		{
			"buffer":0,
			"byteLength":5856,
			"byteOffset":476728,
			"target":34963
		},
		{
			"buffer":0,
			"byteLength":45168,
			"byteOffset":482584,
			"target":34962
		},
		{
			"buffer":0,
			"byteLength":45168,
			"byteOffset":527752,
			"target":34962
		},
		{
			"buffer":0,
			"byteLength":30112,
			"byteOffset":572920,
			"target":34962
		},
		{
			"buffer":0,
			"byteLength":7656,
			"byteOffset":603032,
			"target":34963
		},
		{
			"buffer":0,
			"byteLength":415200,
			"byteOffset":610688,
			"target":34962
		},
		{
			"buffer":0,
			"byteLength":415200,
			"byteOffset":1025888,
			"target":34962
		},
		{
			"buffer":0,
			"byteLength":276800,
			"byteOffset":1441088,
			"target":34962
		},
		{
			"buffer":0,
			"byteLength":92508,
			"byteOffset":1717888,
			"target":34963
		}
	],
	"samplers":[
		{
			"magFilter":9729,
			"minFilter":9987
		}
	],
	"buffers":[
		{
			"byteLength":1810396,
			"uri":"scene.bin"
		}
	]
}
